<?xml version="1.0" encoding="utf-8"?>
<!-- Generator: Adobe Illustrator 19.0.0, SVG Export Plug-In . SVG Version: 6.00 Build 0)  -->
<svg version="1.1" id="Layer_1" xmlns="http://www.w3.org/2000/svg" xmlns:xlink="http://www.w3.org/1999/xlink" x="0px" y="0px"
	 viewBox="210 -225 520 520" style="enable-background:new 210 -225 520 520;" xml:space="preserve">
<style type="text/css">
	.st0{fill:url(#SVGID_1_);}
	.st1{fill:url(#SVGID_2_);}
	.st2{fill:url(#SVGID_3_);}
	.st3{fill:url(#SVGID_4_);}
	.st4{fill:url(#SVGID_5_);}
	.st5{fill:url(#SVGID_6_);}
	.st6{fill:#F5F5F5;}
	.st7{fill:none;}
</style>
<g>
	
		<linearGradient id="SVGID_1_" gradientUnits="userSpaceOnUse" x1="510.78" y1="175.084" x2="729.72" y2="175.084" gradientTransform="matrix(1 0 0 -1 0 70)">
		<stop  offset="0" style="stop-color:#FFFFFF"/>
		<stop  offset="0.9754" style="stop-color:#E0E0E0"/>
	</linearGradient>
	<polygon class="st0" points="720,-217.3 562.9,7.1 495.6,-217.3 	"/>
	
		<linearGradient id="SVGID_2_" gradientUnits="userSpaceOnUse" x1="587.3009" y1="-45.1888" x2="386.0609" y2="114.0912" gradientTransform="matrix(1 0 0 -1 0 70)">
		<stop  offset="0" style="stop-color:#FFFFFF"/>
		<stop  offset="0.9754" style="stop-color:#E0E0E0"/>
	</linearGradient>
	<polygon class="st1" points="623,231.4 338.5,7.1 562.9,7.1 	"/>
	
		<linearGradient id="SVGID_3_" gradientUnits="userSpaceOnUse" x1="566.3523" y1="55.9001" x2="578.1523" y2="-166.9699" gradientTransform="matrix(1 0 0 -1 0 70)">
		<stop  offset="0" style="stop-color:#FFFFFF"/>
		<stop  offset="0.9754" style="stop-color:#E0E0E0"/>
	</linearGradient>
	<polygon class="st2" points="638,287.3 637,287.3 518.7,194 562.9,7.1 	"/>
	
		<linearGradient id="SVGID_4_" gradientUnits="userSpaceOnUse" x1="281.4595" y1="106.3311" x2="367.9885" y2="224.9791" gradientTransform="matrix(1 0 0 -1 0 70)">
		<stop  offset="0" style="stop-color:#FFFFFF"/>
		<stop  offset="0.9754" style="stop-color:#E0E0E0"/>
	</linearGradient>
	<polygon class="st3" points="406.2,-89.6 313.1,-77.8 220,-66 287.7,-162.7 	"/>
	
		<linearGradient id="SVGID_5_" gradientUnits="userSpaceOnUse" x1="259.4726" y1="184.2309" x2="408.2706" y2="89.8409" gradientTransform="matrix(1 0 0 -1 0 70)">
		<stop  offset="0" style="stop-color:#FFFFFF"/>
		<stop  offset="0.9754" style="stop-color:#E0E0E0"/>
	</linearGradient>
	<polygon class="st4" points="562.9,7.1 338.5,7.1 287.7,-162.7 406.2,-89.6 	"/>
	
		<linearGradient id="SVGID_6_" gradientUnits="userSpaceOnUse" x1="450.725" y1="64.26" x2="450.725" y2="287.1416" gradientTransform="matrix(1 0 0 -1 0 70)">
		<stop  offset="0" style="stop-color:#FFFFFF"/>
		<stop  offset="0.9754" style="stop-color:#E0E0E0"/>
	</linearGradient>
	<polygon class="st5" points="562.9,7.1 338.5,7.1 495.6,-217.3 	"/>
	<polygon class="st6" points="287.7,-162.7 313.1,-77.8 308.4,-77.4 	"/>
	<polygon class="st6" points="338.5,7.1 406.2,-89.5 402.2,-92 	"/>
	<polygon class="st6" points="562.9,7.1 503,-217.3 495.6,-217.3 	"/>
	<polygon class="st6" points="527.6,156.2 522.9,152.5 562.9,7.1 	"/>
	<rect x="210" y="-225" class="st7" width="520" height="520"/>
</g>
</svg>
