<svg version="1.1" id="Layer_1" xmlns="http://www.w3.org/2000/svg" x="0" y="0" viewBox="210 -225 520 520" xml:space="preserve"><style>.st6{fill:#f5f5f5}</style><linearGradient id="SVGID_1_" gradientUnits="userSpaceOnUse" x1="510.78" y1="175.084" x2="729.72" y2="175.084" gradientTransform="matrix(1 0 0 -1 0 70)"><stop offset="0" stop-color="#fff"/><stop offset=".975" stop-color="#e0e0e0"/></linearGradient><path fill="url(#SVGID_1_)" d="M720-217.3L562.9 7.1l-67.3-224.4z"/><linearGradient id="SVGID_2_" gradientUnits="userSpaceOnUse" x1="587.301" y1="-45.189" x2="386.061" y2="114.091" gradientTransform="matrix(1 0 0 -1 0 70)"><stop offset="0" stop-color="#fff"/><stop offset=".975" stop-color="#e0e0e0"/></linearGradient><path fill="url(#SVGID_2_)" d="M623 231.4L338.5 7.1h224.4z"/><linearGradient id="SVGID_3_" gradientUnits="userSpaceOnUse" x1="566.352" y1="55.9" x2="578.152" y2="-166.97" gradientTransform="matrix(1 0 0 -1 0 70)"><stop offset="0" stop-color="#fff"/><stop offset=".975" stop-color="#e0e0e0"/></linearGradient><path fill="url(#SVGID_3_)" d="M638 287.3h-1L518.7 194 562.9 7.1z"/><linearGradient id="SVGID_4_" gradientUnits="userSpaceOnUse" x1="281.459" y1="106.331" x2="367.988" y2="224.979" gradientTransform="matrix(1 0 0 -1 0 70)"><stop offset="0" stop-color="#fff"/><stop offset=".975" stop-color="#e0e0e0"/></linearGradient><path fill="url(#SVGID_4_)" d="M406.2-89.6l-93.1 11.8L220-66l67.7-96.7z"/><linearGradient id="SVGID_5_" gradientUnits="userSpaceOnUse" x1="259.473" y1="184.231" x2="408.271" y2="89.841" gradientTransform="matrix(1 0 0 -1 0 70)"><stop offset="0" stop-color="#fff"/><stop offset=".975" stop-color="#e0e0e0"/></linearGradient><path fill="url(#SVGID_5_)" d="M562.9 7.1H338.5l-50.8-169.8 118.5 73.1z"/><linearGradient id="SVGID_6_" gradientUnits="userSpaceOnUse" x1="450.725" y1="64.26" x2="450.725" y2="287.142" gradientTransform="matrix(1 0 0 -1 0 70)"><stop offset="0" stop-color="#fff"/><stop offset=".975" stop-color="#e0e0e0"/></linearGradient><path fill="url(#SVGID_6_)" d="M562.9 7.1H338.5l157.1-224.4z"/><path class="st6" d="M287.7-162.7l25.4 84.9-4.7.4zM338.5 7.1l67.7-96.6-4-2.5zm224.4 0L503-217.3h-7.4z"/><path class="st6" d="M527.6 156.2l-4.7-3.7 40-145.4z"/><path fill="none" d="M210-225h520v520H210z"/></svg>